<svg width="223" height="37" viewBox="0 0 223 37" fill="none" xmlns="http://www.w3.org/2000/svg">
<path d="M0.6 36V29.28L13.464 7.68H0.984V0.959999H21.672V7.68L8.76 29.28H22.2V36H0.6ZM29.0453 36V0.959999H50.6453V7.104H36.1013V14.976H48.9653V21.12H36.1013V29.856H50.6453V36H29.0453ZM56.5305 36V0.959999H67.8105C70.3065 0.959999 72.4665 1.392 74.2905 2.256C76.1145 3.12 77.5225 4.352 78.5145 5.952C79.5385 7.552 80.0505 9.44 80.0505 11.616C80.0505 13.888 79.4905 15.92 78.3705 17.712C77.2825 19.504 75.7945 20.8 73.9065 21.6L80.5305 36H72.7065L67.0425 22.752H63.6825V36H56.5305ZM63.6825 16.512H67.8105C69.4105 16.512 70.6425 16.112 71.5065 15.312C72.4025 14.512 72.8505 13.392 72.8505 11.952C72.8505 10.448 72.4025 9.28 71.5065 8.448C70.6425 7.616 69.4105 7.2 67.8105 7.2H63.6825V16.512ZM96.0638 36.48C93.6958 36.48 91.6478 36.048 89.9198 35.184C88.1918 34.288 86.8478 33.056 85.8878 31.488C84.9598 29.888 84.4958 28.032 84.4958 25.92V11.04C84.4958 8.928 84.9598 7.088 85.8878 5.52C86.8478 3.92 88.1918 2.688 89.9198 1.824C91.6478 0.927999 93.6798 0.48 96.0158 0.48C98.3838 0.48 100.416 0.927999 102.112 1.824C103.84 2.688 105.168 3.92 106.096 5.52C107.056 7.088 107.536 8.928 107.536 11.04V25.92C107.536 28.032 107.056 29.888 106.096 31.488C105.168 33.056 103.84 34.288 102.112 35.184C100.416 36.048 98.3998 36.48 96.0638 36.48ZM96.0158 30.24C97.5198 30.24 98.6878 29.856 99.5198 29.088C100.384 28.32 100.816 27.264 100.816 25.92V11.04C100.816 9.696 100.384 8.64 99.5198 7.872C98.6878 7.104 97.5198 6.72 96.0158 6.72C94.5118 6.72 93.3278 7.104 92.4638 7.872C91.6318 8.64 91.2158 9.696 91.2158 11.04V25.92C91.2158 27.264 91.6478 28.32 92.5118 29.088C93.3758 29.856 94.5438 30.24 96.0158 30.24ZM96.0158 21.792C95.0238 21.792 94.2078 21.472 93.5678 20.832C92.9598 20.192 92.6558 19.36 92.6558 18.336C92.6558 17.312 92.9598 16.496 93.5678 15.888C94.2078 15.28 95.0238 14.976 96.0158 14.976C97.0398 14.976 97.8558 15.28 98.4638 15.888C99.0718 16.496 99.3758 17.312 99.3758 18.336C99.3758 19.36 99.0718 20.192 98.4638 20.832C97.8558 21.472 97.0398 21.792 96.0158 21.792Z" fill="#A78BFA"/>
<path d="M112.845 36V0.959999H124.221C126.653 0.959999 128.765 1.424 130.557 2.352C132.381 3.28 133.789 4.592 134.781 6.288C135.805 7.952 136.317 9.92 136.317 12.192V24.72C136.317 26.96 135.805 28.928 134.781 30.624C133.789 32.32 132.381 33.648 130.557 34.608C128.765 35.536 126.653 36 124.221 36H112.845ZM120.045 29.28H124.221C125.693 29.28 126.877 28.864 127.773 28.032C128.669 27.2 129.117 26.096 129.117 24.72V12.192C129.117 10.848 128.669 9.76 127.773 8.928C126.877 8.096 125.693 7.68 124.221 7.68H120.045V29.28ZM152.474 36.48C150.106 36.48 148.058 36.048 146.33 35.184C144.602 34.288 143.258 33.056 142.298 31.488C141.37 29.888 140.906 28.032 140.906 25.92V11.04C140.906 8.928 141.37 7.088 142.298 5.52C143.258 3.92 144.602 2.688 146.33 1.824C148.058 0.927999 150.09 0.48 152.426 0.48C154.794 0.48 156.826 0.927999 158.522 1.824C160.25 2.688 161.578 3.92 162.506 5.52C163.466 7.088 163.946 8.928 163.946 11.04V25.92C163.946 28.032 163.466 29.888 162.506 31.488C161.578 33.056 160.25 34.288 158.522 35.184C156.826 36.048 154.81 36.48 152.474 36.48ZM152.426 30.24C153.93 30.24 155.098 29.856 155.93 29.088C156.794 28.32 157.226 27.264 157.226 25.92V11.04C157.226 9.696 156.794 8.64 155.93 7.872C155.098 7.104 153.93 6.72 152.426 6.72C150.922 6.72 149.738 7.104 148.874 7.872C148.042 8.64 147.626 9.696 147.626 11.04V25.92C147.626 27.264 148.058 28.32 148.922 29.088C149.786 29.856 150.954 30.24 152.426 30.24ZM152.426 21.792C151.434 21.792 150.618 21.472 149.978 20.832C149.37 20.192 149.066 19.36 149.066 18.336C149.066 17.312 149.37 16.496 149.978 15.888C150.618 15.28 151.434 14.976 152.426 14.976C153.45 14.976 154.266 15.28 154.874 15.888C155.482 16.496 155.786 17.312 155.786 18.336C155.786 19.36 155.482 20.192 154.874 20.832C154.266 21.472 153.45 21.792 152.426 21.792ZM180.824 36.48C178.488 36.48 176.44 36.048 174.68 35.184C172.92 34.288 171.544 33.056 170.552 31.488C169.592 29.888 169.112 28.032 169.112 25.92V11.04C169.112 8.896 169.592 7.04 170.552 5.472C171.544 3.904 172.92 2.688 174.68 1.824C176.44 0.927999 178.488 0.48 180.824 0.48C183.192 0.48 185.24 0.927999 186.968 1.824C188.728 2.688 190.088 3.904 191.048 5.472C192.04 7.04 192.536 8.896 192.536 11.04H185.336C185.336 9.632 184.936 8.56 184.136 7.824C183.368 7.088 182.264 6.72 180.824 6.72C179.384 6.72 178.264 7.088 177.464 7.824C176.696 8.56 176.312 9.632 176.312 11.04V25.92C176.312 27.296 176.696 28.368 177.464 29.136C178.264 29.872 179.384 30.24 180.824 30.24C182.264 30.24 183.368 29.872 184.136 29.136C184.936 28.368 185.336 27.296 185.336 25.92H192.536C192.536 28.032 192.04 29.888 191.048 31.488C190.088 33.056 188.728 34.288 186.968 35.184C185.24 36.048 183.192 36.48 180.824 36.48ZM197.557 36V0.959999H204.757V14.544H208.165L213.925 0.959999H221.749L214.549 17.712L222.037 36H214.117L208.165 21.168H204.757V36H197.557Z" fill="white"/>
</svg>
